<?xml version="1.0" encoding="UTF-8"?>
<svg xmlns="http://www.w3.org/2000/svg" xmlns:xlink="http://www.w3.org/1999/xlink" width="152px" height="32px" viewBox="0 0 152 32" version="1.1">
  <!-- Generator: Sketch 63.1 (92452) - https://sketch.com -->
  <title>logo-ecare</title>
  <desc>Created with Sketch.</desc>
  <g id="🌇--Assets" stroke="none" stroke-width="1" fill="none" fill-rule="evenodd">
    <g id="Artboard" transform="translate(-170.000000, -68.000000)" fill="#121B74" fill-rule="nonzero">
      <g id="logo-ecare" transform="translate(170.000000, 68.000000)">
        <path d="M71.600338,23.5167122 C71.600338,21.5863833 73.1244191,20.0229297 75.0027461,20.0229297 C76.8810731,20.0229297 78.4024081,21.5863833 78.4024081,23.5167122 C78.4024081,25.4470412 76.8810731,27.0104986 75.0027461,27.0104986 C73.121673,27.0133169 71.600338,25.4470412 71.600338,23.5167122 M81.1622307,24.6596702 L81.1622307,32 L88,32 L88,13.8735338 C88,9.36943293 86.8603718,5.92927066 84.5811153,3.55869124 C82.3018589,1.18528971 79.1163921,0 75.0219687,0 C70.9275454,0 67.7338403,1.20222242 65.4408534,3.60384514 C63.1478665,6.00546785 62,9.5190052 62,14.1444572 L62,32 L68.7938319,32 L68.7938319,24.6596702 L68.7938319,18.4848752 L68.7938319,13.9215098 C68.7938319,11.446512 69.3375581,9.54440427 70.4277567,8.21518652 C71.5179552,6.8887909 73.0255598,6.22277097 74.9560625,6.22277097 C76.8865653,6.22277097 78.4024081,6.91701208 79.5063371,8.30267219 C80.6102662,9.69115442 81.1622307,11.635594 81.1622307,14.1444572 L81.1622307,18.4848752 L81.1622307,24.6596702 Z" id="Shape"></path>
        <path d="M9.49293751,15.9985889 C9.49293751,14.06826 11.020948,12.5019843 12.9041178,12.5019843 C14.7872875,12.5019843 16.3152981,14.06826 16.3152981,15.9985889 C16.3152981,17.9289179 14.7872875,19.4951974 12.9041178,19.4951974 C11.0181949,19.4980157 9.49293751,17.93174 9.49293751,15.9985889 M6.9655255,6.41749713 C6.9655255,6.38927595 6.99030405,6.36387689 7.01783577,6.36387689 L22.9476897,6.36387689 C22.9752215,6.36387689 23,6.33847782 23,6.31025664 L23,0.0536202487 C23,0.0225769468 22.9752215,0 22.9476897,0 L0.0523102705,0 C0.0247785492,0 0,0.0225769468 0,0.0536202487 L0,31.9463798 C0,31.9746009 0.0247785492,32 0.0523102705,32 L22.9476897,32 C22.9752215,32 23,31.9746009 23,31.9463798 L23,25.7348973 C23,25.7066761 22.9752215,25.681277 22.9476897,25.681277 L7.01783577,25.681277 C6.99030405,25.681277 6.9655255,25.6558779 6.9655255,25.6276568 L6.9655255,19.0436546 L6.9655255,6.41749713 L6.9655255,6.41749713 Z" id="Shape"></path>
        <path d="M138.490184,15.9985889 C138.490184,14.06826 140.018195,12.5019843 141.901365,12.5019843 C143.784534,12.5019843 145.312545,14.06826 145.312545,15.9985889 C145.312545,17.9289179 143.784534,19.4951974 141.901365,19.4951974 C140.018195,19.4980157 138.490184,17.93174 138.490184,15.9985889 M135.965525,6.41749713 C135.965525,6.38927595 135.990304,6.36387689 136.017836,6.36387689 L151.94769,6.36387689 C151.975221,6.36387689 152,6.33847782 152,6.31025664 L152,0.0536202487 C152,0.0225769468 151.975221,0 151.94769,0 L129.05231,0 C129.024779,0 129,0.0225769468 129,0.0536202487 L129,31.9463798 C129,31.9746009 129.024779,32 129.05231,32 L151.94769,32 C151.975221,32 152,31.9746009 152,31.9463798 L152,25.7348973 C152,25.7066761 151.975221,25.681277 151.94769,25.681277 L136.017836,25.681277 C135.990304,25.681277 135.965525,25.6558779 135.965525,25.6276568 L135.965525,19.0436546 L135.965525,6.41749713 Z" id="Shape"></path>
        <path d="M43.0653168,25.537349 C46.4584834,25.537349 49.2362504,24.1940206 51.3901489,21.5101861 L55.8165093,26.0679072 C52.3047795,30.021695 48.1663584,32 43.401246,32 C38.6361336,32 34.7066096,30.4958109 31.6267887,27.4846106 C28.5413219,24.4762325 27,20.6748391 27,16.0888967 C27,11.5001323 28.5723742,7.67051768 31.7171226,4.60287503 C34.8618709,1.53523238 38.703884,0 43.2488076,0 C48.3244427,0 52.5729582,1.93315107 56,5.79945321 L51.7063175,10.6676074 C49.5213667,7.95272952 46.8057043,6.59529059 43.5593303,6.59529059 C40.9622311,6.59529059 38.7405821,7.44474821 36.8972063,9.14084134 C35.0538304,10.8369345 34.130731,13.1256725 34.130731,16.0014111 C34.130731,18.8799718 35.0001947,21.1884646 36.7419449,22.9297116 C38.4780493,24.6653144 40.5867809,25.537349 43.0653168,25.537349 Z" id="Path"></path>
        <path d="M121.982847,10.6224535 C121.982847,15.7502425 119.951569,19.0605874 115.889012,20.5563101 L124,32 L115.199677,32 L108.100091,21.7923979 L103.150439,21.7923979 L103.150439,32 L96,32 L96,0 L108.142468,0 C113.120371,0 116.674402,0.840991269 118.796085,2.51732957 C120.920593,4.19648999 121.982847,6.89725725 121.982847,10.6224535 Z M113.368984,14.4210248 C114.253254,13.6280095 114.696802,12.3693447 114.696802,10.6422083 C114.696802,8.91789399 114.239128,7.7354264 113.323782,7.09480554 C112.40561,6.45418467 110.803753,6.13246318 108.509737,6.13246318 L103.150439,6.13246318 L103.150439,15.6091515 L108.37413,15.6091515 C110.817879,15.6119587 112.481889,15.21404 113.368984,14.4210248 Z" id="Shape"></path>
      </g>
    </g>
  </g>
</svg>
